<svg width="107" height="60" viewBox="0 0 107 60" fill="none" xmlns="http://www.w3.org/2000/svg">
<rect width="107" height="60" fill="#F0F0F0"/>
<rect x="2" y="2" width="25" height="13.2353" fill="black" fill-opacity="0.65"/>
<rect x="2" y="30" width="25" height="13.2353" fill="black" fill-opacity="0.65"/>
<rect x="2" y="16" width="25" height="13.2353" fill="black" fill-opacity="0.65"/>
<rect x="2" y="44" width="25" height="13.2353" fill="black" fill-opacity="0.65"/>
<rect x="28" y="2" width="25" height="13.2353" fill="black" fill-opacity="0.65"/>
<rect x="28" y="30" width="25" height="13.2353" fill="black" fill-opacity="0.65"/>
<rect x="28" y="16" width="25" height="13.2353" fill="black" fill-opacity="0.65"/>
<rect x="28" y="44" width="25" height="13.2353" fill="black" fill-opacity="0.65"/>
<rect x="54" y="2" width="25" height="13.2353" fill="black" fill-opacity="0.65"/>
<rect x="54" y="30" width="25" height="13.2353" fill="black" fill-opacity="0.65"/>
<rect x="54" y="16" width="25" height="13.2353" fill="black" fill-opacity="0.65"/>
<rect x="54" y="44" width="25" height="13.2353" fill="black" fill-opacity="0.65"/>
<rect x="80" y="2" width="25" height="13.2353" fill="black" fill-opacity="0.65"/>
<rect x="80" y="30" width="25" height="13.2353" fill="black" fill-opacity="0.65"/>
<rect x="80" y="16" width="25" height="13.2353" fill="black" fill-opacity="0.65"/>
<rect x="80" y="44" width="25" height="13.2353" fill="black" fill-opacity="0.65"/>
</svg>
